<?xml version="1.0" encoding="utf-8"?>
<!-- Generator: Adobe Illustrator 27.1.1, SVG Export Plug-In . SVG Version: 6.00 Build 0)  -->
<svg version="1.1" id="Layer_1" xmlns="http://www.w3.org/2000/svg" xmlns:xlink="http://www.w3.org/1999/xlink" x="0px" y="0px"
	 viewBox="0 0 252.4 34" style="enable-background:new 0 0 252.4 34;" xml:space="preserve">
<style type="text/css">
	.st0{fill:none;}
	.st1{fill:#FFFFFF;}
</style>
<g>
	<rect x="0" y="0.1" class="st0" width="252.4" height="33.8"/>
	<g>
		<path class="st1" d="M37,2.9c-2.8-1.3-5.9-2.3-9-2.8c-0.4,0.7-0.8,1.6-1.2,2.4c-3.4-0.5-6.7-0.5-10,0c-0.3-0.8-0.8-1.7-1.2-2.4
			c-3.2,0.5-6.2,1.5-9,2.8C1,11.5-0.6,20,0.2,28.2c3.8,2.8,7.4,4.5,11.1,5.7c0.9-1.2,1.7-2.5,2.4-3.9c-1.3-0.5-2.5-1.1-3.7-1.8
			c0.3-0.2,0.6-0.5,0.9-0.7c7.2,3.4,15,3.4,22.1,0c0.3,0.2,0.6,0.5,0.9,0.7c-1.2,0.7-2.4,1.3-3.7,1.8c0.7,1.4,1.5,2.7,2.4,3.9
			c3.6-1.1,7.3-2.8,11.1-5.7C44.4,18.6,41.9,10.3,37,2.9z M14.6,23.1c-2.2,0-3.9-2-3.9-4.5c0-2.5,1.7-4.5,3.9-4.5c2.2,0,4,2,3.9,4.5
			C18.5,21.1,16.8,23.1,14.6,23.1z M29.1,23.1c-2.2,0-3.9-2-3.9-4.5c0-2.5,1.7-4.5,3.9-4.5c2.2,0,4,2,3.9,4.5
			C33,21.1,31.3,23.1,29.1,23.1z"/>
		<path class="st1" d="M58.7,8.7h9.4c2.3,0,4.2,0.4,5.7,1.1c1.6,0.7,2.7,1.7,3.5,3s1.2,2.8,1.2,4.4c0,1.6-0.4,3.1-1.2,4.4
			c-0.8,1.3-2,2.4-3.7,3.1c-1.7,0.8-3.7,1.2-6.2,1.2h-8.7V8.7z M67.3,21.5c1.5,0,2.7-0.4,3.5-1.2c0.8-0.8,1.2-1.8,1.2-3.2
			c0-1.2-0.4-2.2-1.1-3c-0.7-0.7-1.8-1.1-3.3-1.1h-2.9v8.5H67.3z"/>
		<path class="st1" d="M92.5,25.9c-1.3-0.3-2.5-0.8-3.5-1.5v-4.1c0.8,0.6,1.8,1.1,3.2,1.5c1.3,0.4,2.6,0.6,3.8,0.6
			c0.6,0,1-0.1,1.3-0.2c0.3-0.2,0.4-0.3,0.4-0.6c0-0.2-0.1-0.4-0.2-0.6c-0.2-0.2-0.5-0.3-0.9-0.4L93.7,20c-1.7-0.4-2.8-0.9-3.5-1.6
			c-0.7-0.7-1-1.6-1-2.7c0-1,0.3-1.8,0.9-2.5c0.6-0.7,1.5-1.3,2.6-1.6c1.1-0.4,2.4-0.6,3.9-0.6c1.3,0,2.6,0.1,3.7,0.4
			c1.1,0.3,2.1,0.7,2.8,1.1v3.9c-0.8-0.5-1.6-0.8-2.6-1.1c-1-0.3-2-0.4-3-0.4c-1.5,0-2.3,0.3-2.3,0.8c0,0.2,0.1,0.4,0.4,0.6
			c0.2,0.1,0.7,0.2,1.3,0.4l2.4,0.4c1.6,0.3,2.7,0.8,3.5,1.5c0.8,0.7,1.2,1.7,1.2,3.1c0,1.5-0.6,2.7-1.9,3.6
			c-1.3,0.9-3.1,1.3-5.4,1.3C95.2,26.4,93.8,26.2,92.5,25.9z"/>
		<path class="st1" d="M109.6,25.4c-1.4-0.7-2.4-1.6-3.1-2.8c-0.7-1.2-1-2.5-1-4c0-1.5,0.4-2.8,1.1-4c0.7-1.2,1.8-2.1,3.2-2.7
			c1.4-0.7,3.1-1,5-1c2.4,0,4.4,0.5,6,1.5V17c-0.6-0.4-1.2-0.7-2-1c-0.7-0.2-1.5-0.4-2.4-0.4c-1.5,0-2.7,0.3-3.5,0.8
			c-0.8,0.6-1.3,1.3-1.3,2.2c0,0.9,0.4,1.6,1.2,2.2c0.8,0.6,2,0.8,3.6,0.8c0.8,0,1.6-0.1,2.4-0.4c0.8-0.2,1.4-0.5,2-0.9v4.4
			c-1.8,1.1-3.8,1.6-6.1,1.6C112.6,26.4,110.9,26.1,109.6,25.4z"/>
		<path class="st1" d="M126.6,25.4c-1.4-0.7-2.4-1.6-3.2-2.8c-0.7-1.2-1.1-2.5-1.1-4c0-1.5,0.4-2.8,1.1-3.9c0.7-1.2,1.8-2.1,3.2-2.7
			c1.4-0.7,3-1,4.9-1c1.9,0,3.6,0.3,4.9,1c1.4,0.7,2.4,1.6,3.2,2.7c0.7,1.1,1.1,2.5,1.1,4c0,1.5-0.4,2.8-1.1,4
			c-0.7,1.2-1.8,2.1-3.2,2.8c-1.4,0.7-3,1-4.9,1C129.7,26.4,128,26.1,126.6,25.4z M134,21c0.6-0.6,0.9-1.4,0.9-2.4
			c0-1-0.3-1.8-0.9-2.3c-0.6-0.6-1.4-0.9-2.4-0.9c-1,0-1.8,0.3-2.4,0.9c-0.6,0.6-0.9,1.4-0.9,2.3c0,1,0.3,1.8,0.9,2.4
			c0.6,0.6,1.4,0.9,2.4,0.9C132.6,21.9,133.4,21.6,134,21z"/>
		<path class="st1" d="M155.2,11.8v5.3c-0.6-0.4-1.4-0.6-2.4-0.6c-1.3,0-2.3,0.4-3,1.2c-0.7,0.8-1,2-1,3.7v4.5h-5.9V11.5h5.8v4.6
			c0.3-1.7,0.8-2.9,1.6-3.7c0.7-0.8,1.6-1.2,2.8-1.2C153.8,11.2,154.6,11.4,155.2,11.8z"/>
		<path class="st1" d="M174.8,8.2v17.7h-5.9v-3.2c-0.5,1.2-1.3,2.1-2.3,2.8c-1,0.6-2.3,0.9-3.8,0.9c-1.3,0-2.5-0.3-3.5-1
			c-1-0.7-1.8-1.6-2.3-2.7c-0.5-1.2-0.8-2.5-0.8-3.9c0-1.5,0.3-2.9,0.9-4.1c0.6-1.2,1.4-2.1,2.5-2.8c1.1-0.7,2.3-1,3.6-1
			c2.8,0,4.7,1.2,5.7,3.7V8.2H174.8z M168,20.9c0.6-0.6,0.9-1.4,0.9-2.3c0-0.9-0.3-1.7-0.9-2.2c-0.6-0.6-1.4-0.9-2.4-0.9
			c-1,0-1.8,0.3-2.4,0.9c-0.6,0.6-0.9,1.3-0.9,2.3c0,0.9,0.3,1.7,0.9,2.3c0.6,0.6,1.4,0.9,2.4,0.9C166.6,21.8,167.4,21.5,168,20.9z"
			/>
		<path class="st1" d="M83.5,13.1c1.6,0,2.9-1.2,2.9-2.7s-1.3-2.7-2.9-2.7c-1.6,0-2.9,1.2-2.9,2.7S81.8,13.1,83.5,13.1z"/>
		<path class="st1" d="M80.5,14.9c1.8,0.8,4,0.8,5.9,0V26h-5.9V14.9z"/>
	</g>
	<g>
		<path class="st1" d="M185.7,11.2h8.3c3.2,0,5,1.6,5,3.7c0,1.5-0.8,2.6-2.4,3.1c2,0.5,3,1.9,3,3.7c0,2.5-1.9,4.4-5.9,4.4h-8V11.2z
			 M193.2,17.3c1.4,0,2.1-0.6,2.1-1.8c0-1.2-0.7-1.8-2.2-1.8h-3.8v3.6H193.2z M195.8,21.4c0-1.2-0.9-1.9-2.6-1.9h-4.1v3.9h3.9
			C194.9,23.4,195.8,22.7,195.8,21.4z"/>
		<path class="st1" d="M202.4,11.2h3.6V23h8.3v3h-11.9V11.2z"/>
		<path class="st1" d="M214.9,18.6c0-4.4,3.6-7.8,8.9-7.8c5.3,0,8.8,3.4,8.8,7.8c0,4.4-3.6,7.9-8.9,7.9
			C218.5,26.4,214.9,23,214.9,18.6z M228.9,18.6c0-2.8-2-4.8-5.1-4.8c-3.1,0-5.1,2-5.1,4.8c0,2.8,2,4.8,5.1,4.8
			C226.9,23.4,228.9,21.4,228.9,18.6z"/>
		<path class="st1" d="M234.5,18.6c0-4.3,3.2-7.8,9.4-7.8c2.8,0,4.8,0.6,6.3,1.5v3.2c-1.4-0.9-3.4-1.5-5.8-1.5
			c-4.4,0-6.2,2.2-6.2,4.8c0,2.8,2.1,4.8,5.5,4.8c2.6,0,4.3-1.2,4.6-3.3h-8l0.7-2.6h10.5V19c0,4.8-3.2,7.4-8,7.4
			C238,26.4,234.5,23.1,234.5,18.6z"/>
	</g>
</g>
</svg>
